<svg class="md:w-[220px] w-[150px]" width="220" height="48" viewBox="0 0 220 48" fill="none" xmlns="http://www.w3.org/2000/svg"><path d="M16.1704 3.77516L2.87656 17.069C1.32559 18.8415 1.01542 22.6081 5.0922 23.4943C11.1187 23.8488 15.5057 19.7277 16.6135 17.2905L24.1467 0.00857572C20.7789 -0.168675 17.4259 2.44578 16.1704 3.77516Z" fill="url(#paint0_linear_2022_42)"></path><path d="M44.1127 15.6968L30.8188 2.40295C29.0463 0.85199 25.2797 0.541816 24.3935 4.61859C24.039 10.6451 28.1601 15.0321 30.5973 16.1399L47.8792 23.6731C48.0565 20.3053 45.442 16.9523 44.1127 15.6968Z" fill="url(#paint1_linear_2022_42)"></path><path d="M32.3468 44.1212L45.6406 30.8273C47.1916 29.0548 47.5017 25.2883 43.425 24.402C37.3984 24.0475 33.0115 28.1686 31.9036 30.6058L24.3705 47.8878C27.7382 48.065 31.0912 45.4506 32.3468 44.1212Z" fill="white"></path><path d="M32.3468 44.1212L45.6406 30.8273C47.1916 29.0548 47.5017 25.2883 43.425 24.402C37.3984 24.0475 33.0115 28.1686 31.9036 30.6058L24.3705 47.8878C27.7382 48.065 31.0912 45.4506 32.3468 44.1212Z" fill="url(#paint2_linear_2022_42)"></path><path d="M3.77517 31.9136L17.069 45.2074C18.8415 46.7584 22.6081 47.0686 23.4943 42.9918C23.8488 36.9652 19.7277 32.5783 17.2905 31.4704L0.00857865 23.9373C-0.168673 27.305 2.44578 30.658 3.77517 31.9136Z" fill="white"></path><path d="M3.77517 31.9136L17.069 45.2074C18.8415 46.7584 22.6081 47.0686 23.4943 42.9918C23.8488 36.9652 19.7277 32.5783 17.2905 31.4704L0.00857865 23.9373C-0.168673 27.305 2.44578 30.658 3.77517 31.9136Z" fill="url(#paint3_linear_2022_42)"></path><path d="M61.2929 17.0449V21.9531H58.0837V7.70546H63.1111C66.7012 7.70546 68.4962 9.21898 68.4962 12.246C68.4962 13.6767 67.9796 14.8359 66.9463 15.7235C65.9196 16.6044 64.5452 17.0449 62.823 17.0449H61.2929ZM61.2929 10.1695V14.6107H62.5548C64.2637 14.6107 65.1181 13.8622 65.1181 12.3652C65.1181 10.9014 64.2637 10.1695 62.5548 10.1695H61.2929ZM70.5827 21.9531V7.70546H75.63C80.6905 7.70546 83.2207 10.0204 83.2207 14.6504C83.2207 16.8694 82.5286 18.6412 81.1442 19.966C79.7665 21.2907 77.9284 21.9531 75.63 21.9531H70.5827ZM73.7919 10.3185V19.3499H75.3816C76.7725 19.3499 77.8622 18.9327 78.6504 18.0981C79.4452 17.2635 79.8426 16.1275 79.8426 14.6902C79.8426 13.3323 79.4485 12.2659 78.6603 11.4909C77.8787 10.7093 76.7792 10.3185 75.3617 10.3185H73.7919ZM84.9297 21.4066V18.2272C85.5059 18.7108 86.1319 19.0751 86.8075 19.3201C87.4831 19.5586 88.1653 19.6778 88.8542 19.6778C89.2582 19.6778 89.6093 19.6414 89.9074 19.5685C90.2121 19.4957 90.4638 19.3963 90.6625 19.2705C90.8678 19.138 91.0202 18.9856 91.1195 18.8134C91.2189 18.6346 91.2685 18.4425 91.2685 18.2372C91.2685 17.959 91.1891 17.7106 91.0301 17.492C90.8711 17.2734 90.6525 17.0714 90.3743 16.8859C90.1028 16.7005 89.7782 16.5216 89.4007 16.3494C89.0231 16.1772 88.6157 16.0017 88.1786 15.8228C87.0658 15.3592 86.2345 14.7928 85.6848 14.1238C85.1416 13.4548 84.87 12.6467 84.87 11.6996C84.87 10.9577 85.0191 10.3218 85.3171 9.79193C85.6152 9.25541 86.0193 8.81493 86.5293 8.4705C87.0459 8.12607 87.6421 7.87437 88.3177 7.7154C88.9933 7.5498 89.7087 7.46701 90.4638 7.46701C91.2056 7.46701 91.8614 7.51337 92.431 7.6061C93.0073 7.69221 93.5372 7.828 94.0207 8.01346V10.9842C93.7822 10.8186 93.5206 10.6729 93.2358 10.547C92.9576 10.4212 92.6695 10.3185 92.3714 10.239C92.0733 10.1529 91.7753 10.09 91.4772 10.0503C91.1857 10.0105 90.9076 9.99064 90.6426 9.99064C90.2783 9.99064 89.9471 10.0271 89.649 10.0999C89.351 10.1662 89.0993 10.2622 88.8939 10.3881C88.6886 10.5139 88.5296 10.6663 88.417 10.8451C88.3044 11.0173 88.2481 11.2127 88.2481 11.4313C88.2481 11.6698 88.3111 11.885 88.4369 12.0771C88.5628 12.2626 88.7416 12.4414 88.9734 12.6136C89.2053 12.7792 89.4868 12.9448 89.8179 13.1104C90.1491 13.2694 90.5234 13.435 90.9407 13.6072C91.5103 13.8456 92.0203 14.1007 92.4707 14.3722C92.9278 14.6372 93.3186 14.9386 93.6431 15.2764C93.9677 15.6142 94.2161 16.0017 94.3883 16.4388C94.5605 16.8694 94.6466 17.3728 94.6466 17.949C94.6466 18.7439 94.4943 19.4129 94.1896 19.956C93.8915 20.4925 93.4842 20.9297 92.9675 21.2675C92.4509 21.5987 91.8481 21.8371 91.1593 21.9829C90.477 22.1286 89.755 22.2015 88.9933 22.2015C88.2117 22.2015 87.4665 22.1352 86.7578 22.0027C86.0557 21.8703 85.4463 21.6716 84.9297 21.4066ZM58.2825 42.9531V28.7055H61.8493C64.214 28.7055 66.0123 29.295 67.2443 30.474C68.4764 31.653 69.0924 33.3719 69.0924 35.6306C69.0924 37.8031 68.43 39.5683 67.1052 40.9262C65.7871 42.2774 63.9656 42.9531 61.6407 42.9531H58.2825ZM59.2661 29.6096V42.0589H61.5016C63.6145 42.0589 65.2374 41.5124 66.37 40.4195C67.5027 39.32 68.069 37.7369 68.069 35.6703C68.069 31.6298 65.9461 29.6096 61.7003 29.6096H59.2661ZM72.2419 30.2157C72.0432 30.2157 71.8677 30.1428 71.7153 29.9971C71.563 29.8514 71.4868 29.6659 71.4868 29.4407C71.4868 29.2221 71.563 29.0466 71.7153 28.9141C71.8743 28.775 72.0498 28.7055 72.2419 28.7055C72.4473 28.7055 72.6261 28.7717 72.7785 28.9042C72.9374 29.0366 73.0169 29.2155 73.0169 29.4407C73.0169 29.6527 72.9407 29.8348 72.7884 29.9871C72.636 30.1395 72.4539 30.2157 72.2419 30.2157ZM71.7948 42.9531V32.779H72.7089V42.9531H71.7948ZM84.105 42.198C84.105 44.1122 83.6877 45.5131 82.8531 46.4007C82.0185 47.2883 80.7203 47.7321 78.9584 47.7321C77.9781 47.7321 76.968 47.4737 75.928 46.9571V46.0033C77.0011 46.5994 78.0178 46.8975 78.9782 46.8975C81.7867 46.8975 83.1909 45.4138 83.1909 42.4464V41.1249H83.1512C82.3497 42.5093 81.1276 43.2015 79.485 43.2015C78.2331 43.2015 77.2097 42.7477 76.4149 41.8403C75.6266 40.9328 75.2325 39.6677 75.2325 38.0449C75.2325 36.4221 75.6598 35.0973 76.5142 34.0707C77.3687 33.044 78.4947 32.5307 79.8923 32.5307C81.3893 32.5307 82.4756 33.15 83.1512 34.3886H83.1909V32.779H84.105V42.198ZM83.1909 36.6837C83.1909 35.7829 82.8862 35.0046 82.2769 34.3489C81.6741 33.6931 80.8859 33.3652 79.9122 33.3652C78.7928 33.3652 77.892 33.7858 77.2097 34.6271C76.5275 35.4683 76.1864 36.5811 76.1864 37.9654C76.1864 39.3564 76.4977 40.4394 77.1203 41.2143C77.7495 41.9827 78.5775 42.3669 79.6042 42.3669C80.6971 42.3669 81.5681 42.0125 82.2172 41.3038C82.8664 40.595 83.1909 39.7273 83.1909 38.7006V36.6837ZM87.8209 30.2157C87.6222 30.2157 87.4467 30.1428 87.2943 29.9971C87.142 29.8514 87.0658 29.6659 87.0658 29.4407C87.0658 29.2221 87.142 29.0466 87.2943 28.9141C87.4533 28.775 87.6288 28.7055 87.8209 28.7055C88.0262 28.7055 88.2051 28.7717 88.3574 28.9042C88.5164 29.0366 88.5959 29.2155 88.5959 29.4407C88.5959 29.6527 88.5197 29.8348 88.3674 29.9871C88.215 30.1395 88.0329 30.2157 87.8209 30.2157ZM87.3738 42.9531V32.779H88.2879V42.9531H87.3738ZM95.5706 42.814C95.0937 43.0392 94.6466 43.1518 94.2293 43.1518C92.7258 43.1518 91.974 42.251 91.974 40.4493V33.6136H90.1458V32.779H91.974V30.1362C92.1197 30.0832 92.272 30.0302 92.431 29.9772C92.59 29.9308 92.7423 29.8812 92.888 29.8282V32.779H95.5706V33.6136H92.888V40.3301C92.888 41.0322 92.9973 41.5422 93.2159 41.8602C93.4411 42.1715 93.8187 42.3271 94.3486 42.3271C94.7261 42.3271 95.1335 42.2046 95.5706 41.9595V42.814ZM103.668 42.9531V40.9163H103.628C103.304 41.6118 102.83 42.1682 102.208 42.5854C101.592 42.9961 100.906 43.2015 100.151 43.2015C99.1839 43.2015 98.4188 42.9299 97.8558 42.3867C97.2928 41.8436 97.0113 41.158 97.0113 40.3301C97.0113 38.5549 98.187 37.4819 100.538 37.111L103.668 36.644C103.668 34.4582 102.847 33.3652 101.204 33.3652C100.085 33.3652 98.9951 33.8157 97.9353 34.7165V33.6136C98.3129 33.3156 98.8229 33.0606 99.4654 32.8486C100.115 32.6366 100.724 32.5307 101.294 32.5307C102.34 32.5307 103.148 32.8552 103.718 33.5043C104.294 34.1535 104.582 35.0973 104.582 36.336V42.9531H103.668ZM100.866 37.8859C99.7999 38.0383 99.0514 38.2867 98.6209 38.6311C98.1903 38.9689 97.9751 39.522 97.9751 40.2903C97.9751 40.8931 98.1738 41.3899 98.5712 41.7807C98.9752 42.1715 99.5349 42.3669 100.25 42.3669C101.231 42.3669 102.045 42.0059 102.694 41.2839C103.344 40.5553 103.668 39.618 103.668 38.4721V37.4786L100.866 37.8859ZM107.642 42.9531V27.8907H108.556V42.9531H107.642ZM117.151 42.4464V41.3236C118.171 41.9728 119.204 42.2973 120.251 42.2973C121.363 42.2973 122.208 42.0688 122.784 41.6118C123.36 41.1481 123.649 40.5023 123.649 39.6743C123.649 38.9457 123.453 38.3661 123.062 37.9356C122.678 37.4984 121.84 36.9056 120.549 36.1571C119.105 35.3159 118.191 34.6138 117.806 34.0508C117.422 33.4812 117.23 32.8254 117.23 32.0836C117.23 31.0767 117.621 30.2223 118.403 29.5202C119.184 28.8181 120.227 28.467 121.532 28.467C122.38 28.467 123.228 28.6094 124.076 28.8942V29.9275C123.241 29.55 122.35 29.3612 121.403 29.3612C120.436 29.3612 119.668 29.6063 119.098 30.0964C118.535 30.5866 118.254 31.2092 118.254 31.9643C118.254 32.6929 118.446 33.2725 118.83 33.7031C119.221 34.1336 120.059 34.7198 121.344 35.4616C122.675 36.2167 123.559 36.8891 123.996 37.4786C124.44 38.0615 124.662 38.7338 124.662 39.4955C124.662 40.5884 124.281 41.4793 123.519 42.1682C122.764 42.857 121.695 43.2015 120.31 43.2015C119.82 43.2015 119.254 43.1253 118.611 42.9729C117.975 42.8206 117.489 42.6451 117.151 42.4464ZM131.597 43.2015C130.113 43.2015 128.938 42.7146 128.07 41.7409C127.209 40.7606 126.778 39.4889 126.778 37.9257C126.778 36.2366 127.229 34.9152 128.129 33.9614C129.037 33.0076 130.229 32.5307 131.706 32.5307C133.157 32.5307 134.303 33.0042 135.144 33.9514C135.985 34.8986 136.406 36.2101 136.406 37.8859C136.406 39.469 135.975 40.7507 135.114 41.731C134.26 42.7113 133.087 43.2015 131.597 43.2015ZM131.667 33.3652C130.468 33.3652 129.511 33.7693 128.795 34.5774C128.086 35.3855 127.732 36.5082 127.732 37.9455C127.732 39.2769 128.08 40.3466 128.775 41.1547C129.471 41.9628 130.421 42.3669 131.627 42.3669C132.852 42.3669 133.796 41.9694 134.458 41.1746C135.121 40.3798 135.452 39.2769 135.452 37.8661C135.452 36.4155 135.121 35.3027 134.458 34.5277C133.803 33.7527 132.872 33.3652 131.667 33.3652ZM138.939 42.9531V27.8907H139.853V42.9531H138.939ZM149.829 42.9531V41.105H149.789C149.08 42.5027 147.987 43.2015 146.51 43.2015C144.106 43.2015 142.904 41.6879 142.904 38.6609V32.779H143.828V38.4324C143.828 39.8101 144.053 40.8103 144.503 41.4329C144.96 42.0556 145.676 42.3669 146.649 42.3669C147.597 42.3669 148.362 42.0191 148.945 41.3236C149.534 40.6281 149.829 39.7008 149.829 38.5417V32.779H150.743V42.9531H149.829ZM158.026 42.814C157.549 43.0392 157.102 43.1518 156.684 43.1518C155.181 43.1518 154.429 42.251 154.429 40.4493V33.6136H152.601V32.779H154.429V30.1362C154.575 30.0832 154.727 30.0302 154.886 29.9772C155.045 29.9308 155.197 29.8812 155.343 29.8282V32.779H158.026V33.6136H155.343V40.3301C155.343 41.0322 155.452 41.5422 155.671 41.8602C155.896 42.1715 156.274 42.3271 156.804 42.3271C157.181 42.3271 157.588 42.2046 158.026 41.9595V42.814ZM160.49 30.2157C160.291 30.2157 160.115 30.1428 159.963 29.9971C159.811 29.8514 159.735 29.6659 159.735 29.4407C159.735 29.2221 159.811 29.0466 159.963 28.9141C160.122 28.775 160.298 28.7055 160.49 28.7055C160.695 28.7055 160.874 28.7717 161.026 28.9042C161.185 29.0366 161.265 29.2155 161.265 29.4407C161.265 29.6527 161.188 29.8348 161.036 29.9871C160.884 30.1395 160.702 30.2157 160.49 30.2157ZM160.043 42.9531V32.779H160.957V42.9531H160.043ZM168.299 43.2015C166.815 43.2015 165.64 42.7146 164.772 41.7409C163.911 40.7606 163.48 39.4889 163.48 37.9257C163.48 36.2366 163.931 34.9152 164.831 33.9614C165.739 33.0076 166.931 32.5307 168.408 32.5307C169.859 32.5307 171.005 33.0042 171.846 33.9514C172.687 34.8986 173.108 36.2101 173.108 37.8859C173.108 39.469 172.677 40.7507 171.816 41.731C170.962 42.7113 169.789 43.2015 168.299 43.2015ZM168.369 33.3652C167.17 33.3652 166.213 33.7693 165.497 34.5774C164.788 35.3855 164.434 36.5082 164.434 37.9455C164.434 39.2769 164.782 40.3466 165.477 41.1547C166.173 41.9628 167.123 42.3669 168.329 42.3669C169.554 42.3669 170.498 41.9694 171.16 41.1746C171.823 40.3798 172.154 39.2769 172.154 37.8661C172.154 36.4155 171.823 35.3027 171.16 34.5277C170.505 33.7527 169.574 33.3652 168.369 33.3652ZM182.557 42.9531V37.0315C182.557 34.5873 181.676 33.3652 179.914 33.3652C178.933 33.3652 178.129 33.7262 177.499 34.4482C176.87 35.1636 176.555 36.0512 176.555 37.111V42.9531H175.641V32.779H176.555V34.6271H176.595C177.337 33.2295 178.496 32.5307 180.073 32.5307C181.172 32.5307 182.013 32.8983 182.596 33.6335C183.179 34.3621 183.471 35.4053 183.471 36.7632V42.9531H182.557ZM186.004 42.506V41.4031C186.349 41.7012 186.766 41.9363 187.256 42.1085C187.746 42.2808 188.17 42.3669 188.528 42.3669C190.124 42.3669 190.922 41.7144 190.922 40.4096C190.922 39.9591 190.747 39.575 190.396 39.257C190.045 38.9391 189.475 38.6112 188.687 38.2734C187.713 37.8495 187.028 37.4123 186.63 36.9619C186.239 36.5049 186.044 35.9518 186.044 35.3027C186.044 34.4747 186.359 33.8057 186.988 33.2957C187.624 32.7857 188.405 32.5307 189.333 32.5307C190.207 32.5307 190.955 32.7095 191.578 33.0672V34.1005C190.823 33.6103 190.041 33.3652 189.233 33.3652C188.564 33.3652 188.024 33.5408 187.614 33.8918C187.203 34.2363 186.998 34.6867 186.998 35.2431C186.998 35.7266 187.127 36.1207 187.385 36.4254C187.644 36.7235 188.213 37.0679 189.094 37.4587C190.154 37.9356 190.883 38.3794 191.28 38.7901C191.677 39.1941 191.876 39.7339 191.876 40.4096C191.876 41.2177 191.571 41.8866 190.962 42.4165C190.359 42.9398 189.525 43.2015 188.458 43.2015C187.478 43.2015 186.66 42.9696 186.004 42.506Z" fill="white"></path><defs><linearGradient id="paint0_linear_2022_42" x1="20.38" y1="-1.2545e-06" x2="4.20579" y2="22.1564" gradientUnits="userSpaceOnUse"><stop stop-color="#8041FF"></stop><stop offset="1" stop-color="#B986FF"></stop></linearGradient><linearGradient id="paint1_linear_2022_42" x1="26.8092" y1="1.32918" x2="46.9715" y2="23.9287" gradientUnits="userSpaceOnUse"><stop stop-color="#7ADEFF"></stop><stop offset="1" stop-color="#3568FF"></stop></linearGradient><linearGradient id="paint2_linear_2022_42" x1="28.1372" y1="47.8963" x2="44.3114" y2="25.7399" gradientUnits="userSpaceOnUse"><stop stop-color="#8041FF"></stop><stop offset="1" stop-color="#B986FF"></stop></linearGradient><linearGradient id="paint3_linear_2022_42" x1="21.0787" y1="46.2812" x2="0.916331" y2="23.6817" gradientUnits="userSpaceOnUse"><stop stop-color="#7ADEFF"></stop><stop offset="1" stop-color="#3568FF"></stop></linearGradient></defs></svg>